<svg width="352" height="169" viewBox="0 0 352 169" version="1.1" xmlns="http://www.w3.org/2000/svg" xmlns:xlink="http://www.w3.org/1999/xlink" xmlns:figma="http://www.figma.com/figma/ns">
<g id="Canvas" transform="translate(-1388 60)" figma:type="canvas">
<g id="ride" figma:type="vector">
<use xlink:href="#path0_fill" transform="translate(1388.32 -59.833)" fill="#FFFFFF"/>
<use xlink:href="#path1_fill" transform="translate(1388.32 -59.833)" fill="#FFFFFF"/>
<use xlink:href="#path2_fill" transform="translate(1388.32 -59.833)" fill="#FFFFFF"/>
<use xlink:href="#path3_fill" transform="translate(1388.32 -59.833)" fill="#FFFFFF"/>
</g>
</g>
<defs>
<path id="path0_fill" d="M 0 166.833L 0 51.726L 20.424 51.726C 22.126 51.726 23.532 51.874 24.642 52.17C 25.826 52.466 26.788 52.947 27.528 53.613C 28.342 54.205 28.934 55.019 29.304 56.055C 29.748 57.091 30.118 58.349 30.414 59.829L 32.301 70.596C 36.519 64.084 41.255 58.941 46.509 55.167C 51.763 51.393 57.498 49.506 63.714 49.506C 68.968 49.506 73.186 50.764 76.368 53.28L 71.928 78.588C 71.632 80.142 71.04 81.252 70.152 81.918C 69.264 82.51 68.08 82.806 66.6 82.806C 65.342 82.806 63.862 82.658 62.16 82.362C 60.458 81.992 58.312 81.807 55.722 81.807C 46.694 81.807 39.59 86.617 34.41 96.237L 34.41 166.833L 0 166.833Z"/>
<path id="path1_fill" d="M 116.125 51.726L 116.125 166.833L 81.7151 166.833L 81.7151 51.726L 116.125 51.726ZM 120.121 20.202C 120.121 22.94 119.566 25.53 118.456 27.972C 117.346 30.34 115.829 32.449 113.905 34.299C 111.981 36.075 109.724 37.518 107.134 38.628C 104.618 39.664 101.917 40.182 99.0311 40.182C 96.2191 40.182 93.5921 39.664 91.1501 38.628C 88.7081 37.518 86.5251 36.075 84.6011 34.299C 82.7511 32.449 81.2711 30.34 80.1611 27.972C 79.1251 25.53 78.6071 22.94 78.6071 20.202C 78.6071 17.39 79.1251 14.763 80.1611 12.321C 81.2711 9.879 82.7511 7.733 84.6011 5.883C 86.5251 4.033 88.7081 2.59 91.1501 1.554C 93.5921 0.518 96.2191 0 99.0311 0C 101.917 0 104.618 0.518 107.134 1.554C 109.724 2.59 111.981 4.033 113.905 5.883C 115.829 7.733 117.346 9.879 118.456 12.321C 119.566 14.763 120.121 17.39 120.121 20.202Z"/>
<path id="path2_fill" d="M 213.618 166.833C 211.472 166.833 209.659 166.352 208.179 165.39C 206.773 164.428 205.774 162.985 205.182 161.061L 202.518 152.292C 200.224 154.734 197.819 156.954 195.303 158.952C 192.787 160.95 190.049 162.689 187.089 164.169C 184.203 165.575 181.058 166.648 177.654 167.388C 174.324 168.202 170.698 168.609 166.776 168.609C 160.782 168.609 155.232 167.277 150.126 164.613C 145.02 161.949 140.617 158.101 136.917 153.069C 133.217 148.037 130.294 141.895 128.148 134.643C 126.076 127.317 125.04 118.992 125.04 109.668C 125.04 101.084 126.224 93.129 128.592 85.803C 130.96 78.403 134.29 72.039 138.582 66.711C 142.948 61.309 148.165 57.091 154.233 54.057C 160.301 51.023 166.998 49.506 174.324 49.506C 180.244 49.506 185.239 50.394 189.309 52.17C 193.453 53.872 197.19 56.129 200.52 58.941L 200.52 0.666L 234.93 0.666L 234.93 166.833L 213.618 166.833ZM 178.764 142.191C 181.28 142.191 183.537 141.969 185.535 141.525C 187.607 141.007 189.494 140.304 191.196 139.416C 192.898 138.528 194.489 137.418 195.969 136.086C 197.523 134.754 199.04 133.2 200.52 131.424L 200.52 82.584C 197.856 79.698 195.007 77.7 191.973 76.59C 189.013 75.406 185.868 74.814 182.538 74.814C 179.356 74.814 176.433 75.443 173.769 76.701C 171.105 77.959 168.774 79.994 166.776 82.806C 164.852 85.544 163.335 89.133 162.225 93.573C 161.115 98.013 160.56 103.378 160.56 109.668C 160.56 115.736 161.004 120.842 161.892 124.986C 162.78 129.13 164.001 132.497 165.555 135.087C 167.183 137.603 169.107 139.416 171.327 140.526C 173.547 141.636 176.026 142.191 178.764 142.191Z"/>
<path id="path3_fill" d="M 299.771 49.95C 307.393 49.95 314.349 51.134 320.639 53.502C 327.003 55.87 332.442 59.311 336.956 63.825C 341.544 68.339 345.096 73.889 347.612 80.475C 350.202 86.987 351.497 94.387 351.497 102.675C 351.497 105.265 351.386 107.374 351.164 109.002C 350.942 110.63 350.535 111.925 349.943 112.887C 349.351 113.849 348.537 114.515 347.501 114.885C 346.539 115.255 345.281 115.44 343.727 115.44L 277.349 115.44C 278.459 125.06 281.382 132.053 286.118 136.419C 290.854 140.711 296.959 142.857 304.433 142.857C 308.429 142.857 311.87 142.376 314.756 141.414C 317.642 140.452 320.195 139.379 322.415 138.195C 324.709 137.011 326.781 135.938 328.631 134.976C 330.555 134.014 332.553 133.533 334.625 133.533C 337.363 133.533 339.435 134.532 340.841 136.53L 350.831 148.851C 347.279 152.921 343.431 156.251 339.287 158.841C 335.217 161.357 330.999 163.355 326.633 164.835C 322.341 166.241 318.012 167.203 313.646 167.721C 309.354 168.313 305.247 168.609 301.325 168.609C 293.259 168.609 285.674 167.314 278.57 164.724C 271.54 162.06 265.361 158.138 260.033 152.958C 254.779 147.778 250.598 141.34 247.49 133.644C 244.456 125.948 242.939 116.994 242.939 106.782C 242.939 99.086 244.234 91.797 246.824 84.915C 249.488 78.033 253.262 72.002 258.146 66.822C 263.104 61.642 269.061 57.535 276.017 54.501C 283.047 51.467 290.965 49.95 299.771 49.95ZM 300.437 73.704C 293.851 73.704 288.708 75.591 285.008 79.365C 281.308 83.065 278.866 88.43 277.682 95.46L 320.639 95.46C 320.639 92.722 320.269 90.058 319.529 87.468C 318.863 84.878 317.716 82.584 316.088 80.586C 314.534 78.514 312.462 76.849 309.872 75.591C 307.282 74.333 304.137 73.704 300.437 73.704Z"/>
</defs>
</svg>
