<svg width="228" height="228" viewBox="0 0 228 228" version="1.1" xmlns="http://www.w3.org/2000/svg" xmlns:xlink="http://www.w3.org/1999/xlink" xmlns:figma="http://www.figma.com/figma/ns">
<title>ridelogo</title>
<desc>Created using Figma</desc>
<g id="Canvas" transform="translate(-4241 -15)" figma:type="canvas">
<g id="ridelogo" figma:type="frame">
<g id="Rectangle 3 (Stroke)" figma:type="vector">
<use xlink:href="#path0_fill" transform="translate(4241.87 15)"/>
</g>
<g id="R" figma:type="vector">
<use xlink:href="#path1_fill" transform="translate(4317.01 78.6999)"/>
</g>
</g>
</g>
<defs>
<path id="path0_fill" fill-rule="evenodd" d="M 194.876 31.7819L 31.724 31.7819L 31.724 195.231L 194.876 195.231L 194.876 31.7819ZM 31.724 0L 0 0L 0 31.7819L 0 195.231L 0 227.013L 31.724 227.013L 194.876 227.013L 226.6 227.013L 226.6 195.231L 226.6 31.7819L 226.6 0L 194.876 0L 31.724 0Z"/>
<path id="path1_fill" d="M 77.0894 31.6002C 77.0894 46.8555 71.0618 56.7079 59.0067 61.1574L 83.0716 95.2094L 56.9673 95.2094L 35.8935 64.835L 21.2098 64.835L 21.2098 95.2094L 0 95.2094L 0 0L 36.0294 0C 50.8038 0 61.318 2.49714 67.5722 7.49144C 73.917 12.4857 77.0894 20.522 77.0894 31.6002ZM 36.7092 46.4469C 43.9604 46.4469 48.9003 45.2664 51.5289 42.9055C 54.1574 40.5446 55.4717 36.8215 55.4717 31.7365C 55.4717 26.5605 54.1121 23.0191 51.3929 21.1122C 48.6737 19.2053 43.9151 18.2519 37.1171 18.2519L 21.2098 18.2519L 21.2098 46.4469L 36.7092 46.4469Z"/>
</defs>
</svg>
