<svg xmlns="http://www.w3.org/2000/svg" viewBox="1368.7 346.7 387.6 387.6"><defs><style>.a{fill:none;stroke:#000;stroke-width:48px;}.b{stroke:rgba(0,0,0,0);}</style></defs><g transform="translate(674)"><path class="a" d="M278.235,24.5H24.5V278.235A85.865,85.865,0,0,0,110.365,364.1h167.87A85.865,85.865,0,0,0,364.1,278.235V110.365A85.865,85.865,0,0,0,278.235,24.5Z" transform="translate(694.2 346.2)"/><path class="b" d="M159.153-81.717q0,42.06-33.3,54.328L170.169,35.2H122.1L83.294-20.63H56.256V35.2H17.2v-175H83.545q40.808,0,58.208,13.77T159.153-81.717ZM84.8-54.428q20.029,0,27.289-6.509t7.26-20.655q0-14.145-7.511-19.4t-26.288-5.257H56.256v51.824Z" transform="translate(794.8 592.8)"/></g></svg>